<svg id="Vrstva_1" data-name="Vrstva 1" xmlns="http://www.w3.org/2000/svg" viewBox="0 0 436 219"><defs><style>.cls-1{fill:none;}.cls-2{fill:#fff;}.cls-3{fill:#ee3424;}.cls-3,.cls-4{fill-rule:evenodd;}.cls-4,.cls-5{fill:#0070af;}</style></defs><path class="cls-1" d="M149.23,75.59c-.63-5,4-17.08,3.78-17.19s-11.14,3.71-18.35,2c-4-1-11.49-5.91-20.33-10.6-5.56-2.84-9.54-5-13.52-5.94-8-1.8-17.93,2.56-17.9,2.81A174,174,0,0,1,114.33,63.5c5.46,3.82,10.74,8.63,10.48,10.57-.32,2.3-2.37,3.51-10.48,10.59-3.6,3.06-7.74,6.55-12,9.93-5.31,4.29-11.25,8.69-16.67,12.55C75.8,114,68.08,118.6,68.08,118.81s7.71-1.32,11.73-2.46c6.87-1.94,13.25-4.32,13.36-4.2s-9.54,21-9.27,21.17,18.22-19.53,30.43-31.42c10.15-9.82,18.6-17.9,20.82-17.52,7.78,1.33,20.71,39.33,21,39.35s4.09-6.12,3.15-17C158.46,96.88,150,82,149.23,75.59Z"/><path class="cls-1" d="M149.23,75.59c-.63-5,4-17.08,3.78-17.19s-11.14,3.71-18.35,2c-4-1-11.49-5.91-20.33-10.6-5.56-2.84-9.54-5-13.52-5.94-8-1.8-17.93,2.56-17.9,2.81A174,174,0,0,1,114.33,63.5c5.46,3.82,10.74,8.63,10.48,10.57-.32,2.3-2.37,3.51-10.48,10.59-3.6,3.06-7.74,6.55-12,9.93-5.31,4.29-11.25,8.69-16.67,12.55C75.8,114,68.08,118.6,68.08,118.81s7.71-1.32,11.73-2.46c6.87-1.94,13.25-4.32,13.36-4.2s-9.54,21-9.27,21.17,18.22-19.53,30.43-31.42c10.15-9.82,18.6-17.9,20.82-17.52,7.78,1.33,20.71,39.33,21,39.35s4.09-6.12,3.15-17C158.46,96.88,150,82,149.23,75.59Z"/><path d="M165.82,106.31c-1-13.74-9.24-26.62-9.24-33.49,0-5,9.17-25.7,9-25.91s-14.86,6.31-27,6.31c-6,0-15-6.41-24.26-11.42a56.79,56.79,0,0,0-6.79-2.88,39.92,39.92,0,0,0-8.15-2.14c-4.78-.47-9.14-.69-15,1.1a60.7,60.7,0,0,0-10.88,4.57,62.71,62.71,0,0,0-6.94,4.25c-.16.13,14.93,6.26,25.31,12.58,11.49,6.55,21.49,12.58,21.38,16.22S102,86.85,82.16,101.57c-5.08,3.77-14.34,9.42-21.37,13.67-15.13,9.14-27.56,15.27-27.5,15.57s12.94-1.07,28.39-3.65c13.07-2.46,20.31-4.93,20.53-4.78s-5.47,10.55-10.82,20.71c-10.72,20.36-24.82,47.14-24.58,47.25S87.93,138.66,102,123.17c4-4.47,8.3-8.83,12.33-12.65,9.17-9,17.18-16.32,19-15.29,5.77,3.22,21.42,43.23,21.76,43.32S167.08,123,165.82,106.31Z"/><path class="cls-2" d="M156.16,123.73c-.3,0-13.23-38-21-39.35-2.22-.38-10.67,7.7-20.82,17.52-12.21,11.89-30.11,31.61-30.43,31.42s9.45-21,9.27-21.17-6.49,2.26-13.36,4.2c-4,1.14-11.73,2.8-11.73,2.46S75.8,114,85.66,107.14c5.42-3.86,11.36-8.26,16.67-12.55,4.26-3.38,8.4-6.87,12-9.93,8.11-7.08,10.16-8.29,10.48-10.59.26-1.94-5-6.75-10.48-10.57A174,174,0,0,0,82.91,46.63c0-.25,9.87-4.61,17.9-2.81,4,.89,8,3.1,13.52,5.94,8.84,4.69,16.37,9.64,20.33,10.6,7.21,1.75,18.07-2.1,18.35-2s-4.41,12.14-3.78,17.19c.78,6.36,9.23,21.29,10.08,31.09C160.25,117.61,156.46,123.75,156.16,123.73Z"/><path class="cls-3" d="M81.58,60.36C92.91,66,103.23,71.79,104.74,75.75c.42,1.09-3.36,4.2-10.14,9.5-5.21,4.09-9.38,7.25-12.44,9.3-.47.31-7.19-5.9-20.32-10.5a116,116,0,0,0-20.59-4.79c3.31-10.08,13.13-24.84,20.32-27.93C64.78,52.27,73.16,56.16,81.58,60.36Z"/><path class="cls-3" d="M130.11,104.05c1.64-.64,5.72,6.42,9.44,13.84,5.23,10.47,8.31,15.81,11.57,25.52a53.12,53.12,0,0,1-8.34,7.63c-2.07-3.93-6.71-10.13-12.67-17.37-9.85-11.95-15-16-14.77-16.35C118.9,113,128.12,104.84,130.11,104.05Z"/><path class="cls-4" d="M39.47,84.83a176.67,176.67,0,0,1,17.75,4c10.07,2.63,20.63,9.46,20.1,9.83-2.11,1.47-7.22,5.06-14.8,10-2.46,1.59-2.31,1.67-5.1,3.35A104.69,104.69,0,0,0,37,110.83C36,102.27,36.47,91.14,39.47,84.83Z"/><path class="cls-4" d="M104.06,128.64a71,71,0,0,1,6.2-5.73c.74-.33,7.75,6.35,14.6,14,5.91,6.62,11.4,13.49,13.23,17.44a37.86,37.86,0,0,1-9.31,6.13,188.93,188.93,0,0,0-16-14.85,172.79,172.79,0,0,0-14-10.61C98.6,134.94,101.25,131.65,104.06,128.64Z"/><path class="cls-5" d="M196.59,78.63h11.29c10.49,0,14.65,4.76,14.65,12.22,0,8.22-6.83,12.16-14.59,12.16h-4.11l-.06,15.69h-7.58ZM207.71,97c4,0,7.06-2.43,7.06-6.2,0-2.42-1.38-6.13-6.77-6.13h-3.94L204,97Z"/><path class="cls-5" d="M228.58,78.63H236l-.35,40.07h-7.42Z"/><path class="cls-5" d="M263.63,77.83c13,0,21.48,9.15,21.48,20.84s-9.31,20.84-21.48,20.84-21.48-8.68-21.48-20.84C242.15,87,251.71,77.83,263.63,77.83Zm0,35.66c8.28,0,13.73-6.89,13.73-14.82,0-8.52-5.45-14.83-13.73-14.83-6.72,0-13.72,5.51-13.72,14.83C249.91,107.41,255.36,113.49,263.63,113.49Z"/><path class="cls-5" d="M291.61,79.91l6.89-2.08,18.7,30.68h.12l-.47-29.88h7.41l-.34,38.8-7.48,2.08L298.21,89l-.12.12.58,29.58h-7.41Z"/><path class="cls-5" d="M342.73,102.08,329.47,81.64l6.78-3.81L346.73,95l10.88-17.14,6.55,3.76L350.5,101.85l-.24,16.85H342.5Zm5.51-35.43h7.81L348,74.76h-4.81Z"/><path class="cls-5" d="M369.12,78.63H381.8c9.67,0,13.61,5.21,13.61,11.59,0,5.09-3.07,8.74-7.76,10.42l11.4,14.93-6.6,3.94-11.11-15.46a3,3,0,0,0-2.66-1.39h-2.32l-.06,16h-7.58Zm11.93,18c2.2,0,6.6-1,6.6-6.19,0-3.82-3-5.79-6.77-5.79h-4.29l-.11,12Z"/></svg>